<svg xmlns="http://www.w3.org/2000/svg" version="1.1" xmlns:xlink="http://www.w3.org/1999/xlink" xmlns:svgjs="http://svgjs.com/svgjs" width="1000" height="1000"><rect width="1000" height="1000" rx="500" ry="500" fill="#e91e63"></rect><g transform="matrix(6.25,0,0,6.25,98.63104343414307,98.63104343414307)"><svg xmlns="http://www.w3.org/2000/svg" version="1.1" xmlns:xlink="http://www.w3.org/1999/xlink" xmlns:svgjs="http://svgjs.com/svgjs" width="128" height="128"><svg xmlns="http://www.w3.org/2000/svg" version="1.1" xmlns:xlink="http://www.w3.org/1999/xlink" xmlns:svgjs="http://svgjs.dev/svgjs" width="128" height="128" viewBox="0 0 128 128"><g transform="matrix(0.8046875,0,0,0.8046875,12.760752631578946,12.760752631578931)"><svg viewBox="0 0 95 95" data-background-color="#ffffff" preserveAspectRatio="xMidYMid meet" height="128" width="128" xmlns="http://www.w3.org/2000/svg" xmlns:xlink="http://www.w3.org/1999/xlink"><g id="tight-bounds" transform="matrix(1,0,0,1,-0.24049999999999727,-0.24049999999998306)"><svg viewBox="0 0 95.481 95.48099999999997" height="95.48099999999997" width="95.481"><g><svg viewBox="0 0 95.481 95.48099999999997" height="95.48099999999997" width="95.481"><g><svg viewBox="0 0 95.481 95.48099999999997" height="95.48099999999997" width="95.481"><g id="textblocktransform"><svg viewBox="0 0 95.481 95.48099999999997" height="95.48099999999997" width="95.481" id="textblock"><g><svg viewBox="0 0 95.481 95.48099999999997" height="95.48099999999997" width="95.481"><g><svg viewBox="0 0 95.481 95.48099999999997" height="95.48099999999997" width="95.481"><g><svg xmlns="http://www.w3.org/2000/svg" xmlns:xlink="http://www.w3.org/1999/xlink" version="1.1" x="0" y="0" viewBox="25.700000000000003 25.7 48.60000000000001 48.599999999999994" enable-background="new 0 0 100 100" xml:space="preserve" height="95.48099999999997" width="95.481" class="icon-icon-0" data-fill-palette-color="accent" id="icon-0"><g fill="#e91e63" data-fill-palette-color="accent"><g fill="#e91e63" data-fill-palette-color="accent"><path fill="#ffffff" d="M69.7 73.9c-0.3 0-0.5-0.1-0.7-0.3l-3.9-3.9c-0.4-0.4-0.4-1 0-1.4s1-0.4 1.4 0l3.2 3.2 1.8-1.8-3.2-3.2c-0.4-0.4-0.4-1 0-1.4s1-0.4 1.4 0l3.9 3.9c0.4 0.4 0.4 1 0 1.4l-3.2 3.2C70.2 73.8 69.9 73.9 69.7 73.9z" data-fill-palette-color="accent"></path></g><g fill="#e91e63" data-fill-palette-color="accent"><path fill="#ffffff" d="M57.7 61.9c-0.3 0-0.5-0.1-0.7-0.3L38.4 43c-0.4-0.4-0.4-1 0-1.4s1-0.4 1.4 0l18.6 18.6c0.4 0.4 0.4 1 0 1.4C58.2 61.8 58 61.9 57.7 61.9z" data-fill-palette-color="accent"></path></g><g fill="#e91e63" data-fill-palette-color="accent"><path fill="#ffffff" d="M60.9 58.7c-0.3 0-0.5-0.1-0.7-0.3L41.6 39.8c-0.4-0.4-0.4-1 0-1.4s1-0.4 1.4 0L61.6 57c0.4 0.4 0.4 1 0 1.4C61.4 58.6 61.2 58.7 60.9 58.7z" data-fill-palette-color="accent"></path></g><g fill="#e91e63" data-fill-palette-color="accent"><path fill="#ffffff" d="M31 35.2c-0.3 0-0.5-0.1-0.7-0.3l-3.5-3.5c-0.2-0.2-0.3-0.4-0.3-0.7s0.1-0.5 0.3-0.7l3.2-3.2c0.4-0.4 1-0.4 1.4 0l3.5 3.5c0.4 0.4 0.4 1 0 1.4s-1 0.4-1.4 0l-2.8-2.8-1.8 1.8 2.8 2.8c0.4 0.4 0.4 1 0 1.4C31.5 35.1 31.2 35.2 31 35.2z" data-fill-palette-color="accent"></path></g><g fill="#e91e63" data-fill-palette-color="accent"><g fill="#e91e63" data-fill-palette-color="accent"><path fill="#ffffff" d="M30.8 43.5L30.8 43.5c-0.3 0-0.5-0.1-0.7-0.3L26 39.1c-0.4-0.4-0.4-1 0-1.4L37.7 26c0.2-0.2 0.4-0.3 0.7-0.3l0 0c0.3 0 0.5 0.1 0.7 0.3l4.1 4.1c0.4 0.4 0.4 1 0 1.4L31.5 43.2C31.3 43.4 31 43.5 30.8 43.5zM28.1 38.4l2.6 2.6 10.3-10.3-2.6-2.6L28.1 38.4z" data-fill-palette-color="accent"></path></g><g fill="#e91e63" data-fill-palette-color="accent"><path fill="#ffffff" d="M32.3 50.1c-0.3 0-0.5-0.1-0.7-0.3l-4.1-4.1c-0.2-0.2-0.3-0.4-0.3-0.7s0.1-0.5 0.3-0.7l16.7-16.7c0.4-0.4 1-0.4 1.4 0l4.1 4.1c0.4 0.4 0.4 1 0 1.4L33 49.8C32.8 50 32.6 50.1 32.3 50.1zM29.7 45l2.6 2.6 15.3-15.3L45 29.7 29.7 45z" data-fill-palette-color="accent"></path></g></g><g fill="#e91e63" data-fill-palette-color="accent"><g fill="#e91e63" data-fill-palette-color="accent"><path fill="#ffffff" d="M61.6 74.3L61.6 74.3c-0.3 0-0.5-0.1-0.7-0.3l-4.1-4.1c-0.4-0.4-0.4-1 0-1.4l11.7-11.7c0.2-0.2 0.4-0.3 0.7-0.3l0 0c0.3 0 0.5 0.1 0.7 0.3l4.1 4.1c0.4 0.4 0.4 1 0 1.4L62.3 74C62.1 74.2 61.8 74.3 61.6 74.3zM58.9 69.2l2.6 2.6 10.3-10.3-2.6-2.6L58.9 69.2z" data-fill-palette-color="accent"></path></g><g fill="#e91e63" data-fill-palette-color="accent"><path fill="#ffffff" d="M55 72.7c-0.3 0-0.5-0.1-0.7-0.3l-4.1-4.1c-0.4-0.4-0.4-1 0-1.4L67 50.2c0.2-0.2 0.4-0.3 0.7-0.3l0 0c0.3 0 0.5 0.1 0.7 0.3l4.1 4.1c0.4 0.4 0.4 1 0 1.4L55.7 72.4C55.5 72.6 55.3 72.7 55 72.7zM52.4 67.7l2.6 2.6L70.3 55l-2.6-2.6L52.4 67.7z" data-fill-palette-color="accent"></path></g></g></g></svg></g></svg></g></svg></g></svg></g></svg></g></svg></g><defs></defs></svg><rect width="95.481" height="95.48099999999997" fill="none" stroke="none" visibility="hidden"></rect></g></svg></g></svg></svg></g></svg>