<svg xmlns="http://www.w3.org/2000/svg" viewBox="0 0 750 500"><g id="freepik--background-simple--inject-56"><path d="M682.21,151.9c-20-30.17-45-56.58-77.49-74.11C525.93,35.26,432.6,52.22,368,111.49c-24.39,22.35-41.48,51.34-65,74.55-11.5,11.36-24.62,21.56-40,26.94-26.48,9.25-57.55.59-85.08,2.87-41.22,3.41-87.6,18.84-107.4,58C49.69,314.9,53,369.17,74,409.53c3.34,6.42,17,32.21,25.69,32.21H702.9c2.4,0,9.71-17.77,10.62-19.64a293,293,0,0,0,20.15-54.65c14.91-57.56-.84-117.43-25.83-169.76A378,378,0,0,0,682.21,151.9Z" style="fill:#E91E63"></path><path d="M682.21,151.9c-20-30.17-45-56.58-77.49-74.11C525.93,35.26,432.6,52.22,368,111.49c-24.39,22.35-41.48,51.34-65,74.55-11.5,11.36-24.62,21.56-40,26.94-26.48,9.25-57.55.59-85.08,2.87-41.22,3.41-87.6,18.84-107.4,58C49.69,314.9,53,369.17,74,409.53c3.34,6.42,17,32.21,25.69,32.21H702.9c2.4,0,9.71-17.77,10.62-19.64a293,293,0,0,0,20.15-54.65c14.91-57.56-.84-117.43-25.83-169.76A378,378,0,0,0,682.21,151.9Z" style="fill:#fff;opacity:0.7000000000000001"></path></g><g id="freepik--Bricks--inject-56"><rect x="185.61" y="328.81" width="32.45" height="11.16" style="opacity:0.2"></rect><rect x="429.7" y="315.39" width="32.45" height="11.16" style="opacity:0.2"></rect><rect x="297.72" y="315.95" width="32.45" height="11.16" style="opacity:0.2"></rect><rect x="159.78" y="315.95" width="32.45" height="11.16" style="opacity:0.2"></rect><rect x="529.18" y="315.39" width="32.45" height="11.16" style="opacity:0.2"></rect><rect x="455.23" y="251.02" width="32.45" height="11.16" style="opacity:0.2"></rect><rect x="334.71" y="264.8" width="32.45" height="11.16" style="opacity:0.2"></rect><rect x="207.24" y="267.43" width="32.45" height="11.16" style="opacity:0.2"></rect><rect x="243.55" y="267.43" width="32.45" height="11.16" style="opacity:0.2"></rect><rect x="375.66" y="264.8" width="32.45" height="11.16" style="opacity:0.2"></rect><rect x="148.69" y="279.82" width="32.45" height="11.16" style="opacity:0.2"></rect><rect x="508.92" y="330.82" width="32.45" height="11.16" style="opacity:0.1"></rect><rect x="546" y="330.82" width="32.45" height="11.16" style="opacity:0.1"></rect><rect x="253.35" y="333.46" width="32.45" height="11.16" style="opacity:0.2"></rect><rect x="233.08" y="348.89" width="32.45" height="11.16" style="opacity:0.1"></rect><rect x="270.17" y="348.89" width="32.45" height="11.16" style="opacity:0.1"></rect><rect x="95.35" y="333.46" width="32.45" height="11.16" style="opacity:0.2"></rect><rect x="75.08" y="348.89" width="32.45" height="11.16" style="opacity:0.1"></rect><rect x="112.17" y="348.89" width="32.45" height="11.16" style="opacity:0.1"></rect><rect x="448.61" y="333.46" width="32.45" height="11.16" style="opacity:0.2"></rect><rect x="428.34" y="348.89" width="32.45" height="11.16" style="opacity:0.1"></rect><rect x="465.43" y="348.89" width="32.45" height="11.16" style="opacity:0.1"></rect><rect x="226.1" y="284.96" width="32.45" height="11.16" style="opacity:0.2"></rect><rect x="205.83" y="300.39" width="32.45" height="11.16" style="opacity:0.1"></rect><rect x="242.91" y="300.39" width="32.45" height="11.16" style="opacity:0.1"></rect><rect x="230.42" y="252.66" width="32.45" height="11.16" style="opacity:0.1"></rect><rect x="177.11" y="240.84" width="32.45" height="11.16" style="opacity:0.1"></rect><rect x="390.63" y="231.46" width="32.45" height="11.16" style="opacity:0.1"></rect><rect x="496.95" y="251.35" width="32.45" height="11.16" style="opacity:0.1"></rect><rect x="475.32" y="270.38" width="32.45" height="11.16" style="opacity:0.1"></rect><rect x="334.26" y="148.36" width="32.45" height="11.16" style="opacity:0.2"></rect><rect x="283.79" y="171.23" width="32.45" height="11.16" style="opacity:0.1"></rect><rect x="354.35" y="167.73" width="32.45" height="11.16" style="opacity:0.1"></rect><rect x="354.8" y="251.35" width="32.45" height="11.16" style="opacity:0.1"></rect><rect x="337.03" y="213.6" width="32.45" height="11.16" style="opacity:0.2"></rect><rect x="299.95" y="213.6" width="32.45" height="11.16" style="opacity:0.2"></rect><rect x="318.59" y="200.47" width="32.45" height="11.16" style="opacity:0.1"></rect><rect x="269.44" y="151.02" width="32.45" height="11.16" style="opacity:0.2"></rect><rect x="412.96" y="146.84" width="32.45" height="11.16" style="opacity:0.2"></rect><rect x="375.88" y="146.84" width="32.45" height="11.16" style="opacity:0.2"></rect><rect x="394.52" y="133.71" width="32.45" height="11.16" style="opacity:0.1"></rect><rect x="302.74" y="121.2" width="32.45" height="11.16" style="opacity:0.1"></rect><rect x="303.81" y="232.64" width="32.45" height="11.16" style="opacity:0.1"></rect><rect x="540.42" y="201.11" width="32.45" height="11.16" style="opacity:0.2"></rect><rect x="503.33" y="201.11" width="32.45" height="11.16" style="opacity:0.2"></rect><rect x="521.98" y="187.98" width="32.45" height="11.16" style="opacity:0.1"></rect><rect x="507.2" y="220.14" width="32.45" height="11.16" style="opacity:0.1"></rect><rect x="587.23" y="229.02" width="32.45" height="11.16" style="opacity:0.2"></rect><rect x="628.95" y="229.35" width="32.45" height="11.16" style="opacity:0.1"></rect><rect x="607.32" y="248.38" width="32.45" height="11.16" style="opacity:0.1"></rect><rect x="515.64" y="145.74" width="32.45" height="11.16" style="opacity:0.2"></rect><rect x="478.55" y="145.74" width="32.45" height="11.16" style="opacity:0.2"></rect><rect x="497.2" y="132.61" width="32.45" height="11.16" style="opacity:0.1"></rect><rect x="482.42" y="164.78" width="32.45" height="11.16" style="opacity:0.1"></rect><rect x="178.64" y="145.74" width="32.45" height="11.16" style="opacity:0.2"></rect><rect x="141.55" y="145.74" width="32.45" height="11.16" style="opacity:0.2"></rect><rect x="160.2" y="132.61" width="32.45" height="11.16" style="opacity:0.1"></rect><rect x="145.42" y="164.78" width="32.45" height="11.16" style="opacity:0.1"></rect><rect x="438.66" y="192.24" width="32.45" height="11.16" style="opacity:0.2"></rect><rect x="454.11" y="209.64" width="32.45" height="11.16" style="opacity:0.1"></rect></g><g id="freepik--Floor--inject-56"><line x1="578.15" y1="441.74" x2="725.24" y2="441.74" style="fill:none;stroke:#263238;stroke-miterlimit:10"></line><line x1="14.63" y1="441.74" x2="573.5" y2="441.74" style="fill:none;stroke:#263238;stroke-miterlimit:10"></line></g><g id="freepik--Ball--inject-56"><circle cx="182.68" cy="386.74" r="61" style="fill:#E91E63;stroke:#263238;stroke-miterlimit:10"></circle><line x1="199.83" y1="354.86" x2="136.94" y2="417.75" style="fill:none;stroke:#263238;stroke-miterlimit:10"></line><line x1="215.52" y1="339.17" x2="203.46" y2="351.23" style="fill:none;stroke:#263238;stroke-miterlimit:10"></line><line x1="152.14" y1="427.97" x2="147.73" y2="432.39" style="fill:none;stroke:#263238;stroke-miterlimit:10"></line><line x1="194.59" y1="385.53" x2="155.23" y2="424.89" style="fill:none;stroke:#263238;stroke-miterlimit:10"></line><line x1="229.38" y1="350.73" x2="197.85" y2="382.26" style="fill:none;stroke:#263238;stroke-miterlimit:10"></line><path d="M201.26,338c0,3.51-3.74,6.35-8.34,6.35s-8.35-2.84-8.35-6.35,3.74-6.35,8.35-6.35S201.26,334.47,201.26,338Z" style="fill:#fff"></path></g><g id="freepik--Plant--inject-56"><path d="M87.07,303.49S76.34,297.54,75.55,311s-2.78,101.28-2.78,101.28" style="fill:none;stroke:#263238;stroke-linecap:round;stroke-miterlimit:10;stroke-width:2px"></path><path d="M70,312.23s8.75,19.46,4.77,98.9" style="fill:none;stroke:#263238;stroke-linecap:round;stroke-miterlimit:10;stroke-width:2px"></path><path d="M78.57,306.21s-4.1,2.63-6.43-.38,1.58-8.52-1.87-10.87-9.41,1.24-9.41,1.24,4.59,1.34,4.44,3.85S63,303.5,62.65,302.4s-2.48-6.6-6.2-4.31a9.18,9.18,0,0,0-4.29,5.85s8.66-.93,9.19,2.33-3.56-.57-7.13-.78-6.84.32-6.61,2.48a28.2,28.2,0,0,1-.34,5.72,10.67,10.67,0,0,1,7-2.46c3.93.24,3.78,2.74.21,2.53S47.8,317,47.8,317s3.26,5.58,7.4,8.33,5.64,1.77,6.12-.35-.63-7.57,1.88-7.43-4.15,9.45-1,10,5.76-.37,6.6-2.48l.84-2.1s-1.11-5.45-.63-7.57,1.08.06,1.64,2.61.93,8.66,2,8.37,4.59-4.75,5.41-6.5-4.61-7.09-4.54-8.16,4.25,1,4.9,2.08a28.57,28.57,0,0,1,1.28,2.59s2.61-1.64,2.55-6.67S78.57,306.21,78.57,306.21Z" style="fill:#E91E63"></path><path d="M78.57,306.21s-4.1,2.63-6.43-.38,1.58-8.52-1.87-10.87-9.41,1.24-9.41,1.24,4.59,1.34,4.44,3.85S63,303.5,62.65,302.4s-2.48-6.6-6.2-4.31a9.18,9.18,0,0,0-4.29,5.85s8.66-.93,9.19,2.33-3.56-.57-7.13-.78-6.84.32-6.61,2.48a28.2,28.2,0,0,1-.34,5.72,10.67,10.67,0,0,1,7-2.46c3.93.24,3.78,2.74.21,2.53S47.8,317,47.8,317s3.26,5.58,7.4,8.33,5.64,1.77,6.12-.35-.63-7.57,1.88-7.43-4.15,9.45-1,10,5.76-.37,6.6-2.48l.84-2.1s-1.11-5.45-.63-7.57,1.08.06,1.64,2.61.93,8.66,2,8.37,4.59-4.75,5.41-6.5-4.61-7.09-4.54-8.16,4.25,1,4.9,2.08a28.57,28.57,0,0,1,1.28,2.59s2.61-1.64,2.55-6.67S78.57,306.21,78.57,306.21Z" style="fill:#263238;opacity:0.30000000000000004"></path><path d="M57.78,318c2.67-3.31,6.61-7.78,9.92-9.92" style="fill:none;stroke:#263238;stroke-linecap:round;stroke-miterlimit:10"></path><path d="M54.68,322s.68-.95,1.8-2.38" style="fill:none;stroke:#263238;stroke-linecap:round;stroke-miterlimit:10"></path><path d="M69.44,308.9s4,5.62,4.71,11.4" style="fill:none;stroke:#263238;stroke-linecap:round;stroke-miterlimit:10"></path><path d="M64.94,312.23s1.12-.66.7,6.49" style="fill:none;stroke:#263238;stroke-linecap:round;stroke-miterlimit:10"></path><path d="M67.85,305.58s2.27-2,1.07-6" style="fill:none;stroke:#263238;stroke-linecap:round;stroke-miterlimit:10"></path><line x1="64.77" y1="308.99" x2="63.16" y2="306.02" style="fill:none;stroke:#263238;stroke-linecap:round;stroke-miterlimit:10"></line><path d="M61.37,312s-5.16-3.89-8.37-4.08" style="fill:none;stroke:#263238;stroke-linecap:round;stroke-miterlimit:10"></path><path d="M93.19,295.61s-.16,5.9-4.76,6.19-7.46-7.39-12.17-5.54-5.16,10.26-5.16,10.26,4.47-3.67,6.87-1.82,1.85,4.71.56,4.26-8.31-2-8.55,3.27a11.17,11.17,0,0,0,2.93,8.28s5-9.3,8.6-7.61-3,3.17-5.64,6.61-4.34,7.06-2,8.3a34.31,34.31,0,0,1,5.5,4.24,12.91,12.91,0,0,1,2.28-8.65c2.92-3.78,5.32-1.92,2.67,1.51S83,333.75,83,333.75s7.81.53,13.39-1.74,5.61-4.43,3.81-6.37-8-4.53-6.15-6.93,6.63,10.58,9.35,7.76,3.55-6,2-8.31l-1.53-2.27s-6.21-2.6-8-4.53.79-1,3.73.13,9.3,5,9.76,3.69-1.64-7.83-2.83-9.85-10.23-.22-11.26-1,3.86-3.59,5.42-3.49a34.7,34.7,0,0,1,3.47.48s.13-3.73-4.94-7.09S93.19,295.61,93.19,295.61Z" style="fill:#E91E63"></path><path d="M93.19,295.61s-.16,5.9-4.76,6.19-7.46-7.39-12.17-5.54-5.16,10.26-5.16,10.26,4.47-3.67,6.87-1.82,1.85,4.71.56,4.26-8.31-2-8.55,3.27a11.17,11.17,0,0,0,2.93,8.28s5-9.3,8.6-7.61-3,3.17-5.64,6.61-4.34,7.06-2,8.3a34.31,34.31,0,0,1,5.5,4.24,12.91,12.91,0,0,1,2.28-8.65c2.92-3.78,5.32-1.92,2.67,1.51S83,333.75,83,333.75s7.81.53,13.39-1.74,5.61-4.43,3.81-6.37-8-4.53-6.15-6.93,6.63,10.58,9.35,7.76,3.55-6,2-8.31l-1.53-2.27s-6.21-2.6-8-4.53.79-1,3.73.13,9.3,5,9.76,3.69-1.64-7.83-2.83-9.85-10.23-.22-11.26-1,3.86-3.59,5.42-3.49a34.7,34.7,0,0,1,3.47.48s.13-3.73-4.94-7.09S93.19,295.61,93.19,295.61Z" style="fill:#263238;opacity:0.2"></path><path d="M90.82,324.47c-1.49-4.93-3.28-11.93-3.17-16.69" style="fill:none;stroke:#263238;stroke-linecap:round;stroke-miterlimit:10"></path><path d="M92.74,330.32s-.49-1.34-1.17-3.43" style="fill:none;stroke:#263238;stroke-linecap:round;stroke-miterlimit:10"></path><path d="M89.66,306.59s8.34-.15,14.63,3.05" style="fill:none;stroke:#263238;stroke-linecap:round;stroke-miterlimit:10"></path><path d="M89.92,313.36s.11-1.56,7,3.74" style="fill:none;stroke:#263238;stroke-linecap:round;stroke-miterlimit:10"></path><path d="M85.25,305.92s-.48-3.65-5.31-5.19" style="fill:none;stroke:#263238;stroke-linecap:round;stroke-miterlimit:10"></path><line x1="86.56" y1="311.32" x2="82.49" y2="310.92" style="fill:none;stroke:#263238;stroke-linecap:round;stroke-miterlimit:10"></line><path d="M87.27,316.8s-7.4,2.5-9.79,5.59" style="fill:none;stroke:#263238;stroke-linecap:round;stroke-miterlimit:10"></path><path d="M43.78,334.87s23.43,15.49,23,75.46" style="fill:none;stroke:#263238;stroke-linecap:round;stroke-miterlimit:10;stroke-width:2px"></path><path d="M72.67,330.78s-.75,6.79-6.09,6.69-7.9-9.23-13.51-7.55-6.93,11.35-6.93,11.35,5.51-3.81,8.11-1.45,1.69,5.61.23,5-9.39-3.11-10.17,3a12.92,12.92,0,0,0,2.6,9.83s6.63-10.27,10.65-8-3.76,3.38-7.14,7.1-5.68,7.73-3.11,9.39a39.19,39.19,0,0,1,5.95,5.41s-.27-5.68,3.45-9.77,6.31-1.72,2.93,2-2.36,10.07-2.36,10.07,9,1.35,15.6-.74,6.9-4.59,5-7-8.82-6-6.45-8.59,6.65,12.84,10.06,9.84,4.67-6.62,3.12-9.39l-1.56-2.77s-6.92-3.59-8.81-6,1-1.11,4.29.51,10.27,6.63,10.91,5.18-1.15-9.2-2.33-11.63S75.33,342,74.22,341s4.8-3.79,6.59-3.51a38.59,38.59,0,0,1,4,.88s.51-4.3-5-8.66S72.67,330.78,72.67,330.78Z" style="fill:#E91E63"></path><path d="M72.67,330.78s-.75,6.79-6.09,6.69-7.9-9.23-13.51-7.55-6.93,11.35-6.93,11.35,5.51-3.81,8.11-1.45,1.69,5.61.23,5-9.39-3.11-10.17,3a12.92,12.92,0,0,0,2.6,9.83s6.63-10.27,10.65-8-3.76,3.38-7.14,7.1-5.68,7.73-3.11,9.39a39.19,39.19,0,0,1,5.95,5.41s-.27-5.68,3.45-9.77,6.31-1.72,2.93,2-2.36,10.07-2.36,10.07,9,1.35,15.6-.74,6.9-4.59,5-7-8.82-6-6.45-8.59,6.65,12.84,10.06,9.84,4.67-6.62,3.12-9.39l-1.56-2.77s-6.92-3.59-8.81-6,1-1.11,4.29.51,10.27,6.63,10.91,5.18-1.15-9.2-2.33-11.63S75.33,342,74.22,341s4.8-3.79,6.59-3.51a38.59,38.59,0,0,1,4,.88s.51-4.3-5-8.66S72.67,330.78,72.67,330.78Z" style="fill:#263238;opacity:0.30000000000000004"></path><path d="M67.21,363.85C66,358,64.55,349.78,65.13,344.29" style="fill:none;stroke:#263238;stroke-linecap:round;stroke-miterlimit:10"></path><path d="M68.87,370.78s-.44-1.59-1-4.07" style="fill:none;stroke:#263238;stroke-linecap:round;stroke-miterlimit:10"></path><path d="M67.56,343.11s9.63.61,16.59,4.9" style="fill:none;stroke:#263238;stroke-linecap:round;stroke-miterlimit:10"></path><path d="M67.22,351s.27-1.79,7.7,5" style="fill:none;stroke:#263238;stroke-linecap:round;stroke-miterlimit:10"></path><path d="M62.53,341.92s-.2-4.25-5.64-6.49" style="fill:none;stroke:#263238;stroke-linecap:round;stroke-miterlimit:10"></path><line x1="63.54" y1="348.28" x2="58.88" y2="347.43" style="fill:none;stroke:#263238;stroke-linecap:round;stroke-miterlimit:10"></line><path d="M63.84,354.66S55.05,356.85,52,360.2" style="fill:none;stroke:#263238;stroke-linecap:round;stroke-miterlimit:10"></path><path d="M52.91,382.13S68,393.65,69.59,410.73l-3.18-57.19" style="fill:none;stroke:#263238;stroke-linecap:round;stroke-miterlimit:10;stroke-width:2px"></path><path d="M89.45,373.79c-19.86-3.57-19.86,36.94-19.86,36.94" style="fill:none;stroke:#263238;stroke-linecap:round;stroke-miterlimit:10;stroke-width:2px"></path><path d="M72,410.33s-11.51-83.8,21.85-83.8" style="fill:none;stroke:#263238;stroke-linecap:round;stroke-miterlimit:10;stroke-width:2px"></path><path d="M81.88,371.38c-2.71-3.05-8.47-3.05-11.86,4.75s-.34,6.44-.34,6.44,6.44-2,10.51-3.39,9.49-4.75,9.83-2.71-2.71,4.07-6.44,4.75S70,384.61,71,386.64s3.39,8.14,3.39,8.14A86.1,86.1,0,0,1,83.58,388c4.41-2.72,7.12-1.7,4.74,1.35s-9.15,6.45-7.79,10.52S90,409,90,409s1-8.48,3.39-11.19,2.37.34,1.7,5.09a54.89,54.89,0,0,0-.68,6.1l9.49,3.39a66.48,66.48,0,0,1,5.09-6.78l1.69-1.7s-7.46-6.44-7.8-10.51,5.09,0,6.79.68,4.4,5.43,4.4,5.43,1.7-7.8,2-10.52l.34-2.71s-7.12-2.71-9.84-2.71-4.06,2-4.06-.68,2.71-4.41,5.76-4.07a52.9,52.9,0,0,1,8.14,2s2-1.7,1.35-6.78-2.37-5.09-6.44-3.73-6.78,4.4-9.83,4.4-1.36-3.73.68-4.74,7.12-3,8.13-3.39-5.42-5.09-8.81-5.77-7.78,1.71-7.46,5.09C94.77,373.08,84.6,374.43,81.88,371.38Z" style="fill:#E91E63"></path><path d="M103.71,406.29c.1,1,.17,2,.21,3.07" style="fill:none;stroke:#263238;stroke-linecap:round;stroke-miterlimit:10"></path><path d="M96.9,382a90.28,90.28,0,0,1,6.38,21" style="fill:none;stroke:#263238;stroke-linecap:round;stroke-miterlimit:10"></path><path d="M95.68,379.23c-1.68-3.61-3-5.81-3-5.81a10.07,10.07,0,0,0,4.41-4.07,11.38,11.38,0,0,1,3.39-4.07" style="fill:none;stroke:#263238;stroke-linecap:round;stroke-miterlimit:10"></path><path d="M80.87,385s12.2-5.09,12.2-4.07" style="fill:none;stroke:#263238;stroke-linecap:round;stroke-miterlimit:10"></path><path d="M99.85,378.5s5.43-2.71,10.18-2.71" style="fill:none;stroke:#263238;stroke-linecap:round;stroke-miterlimit:10"></path><path d="M97.82,386.64a46.78,46.78,0,0,0-6.44,6.44,29.31,29.31,0,0,0-4.75,7.8" style="fill:none;stroke:#263238;stroke-linecap:round;stroke-miterlimit:10"></path><path d="M101.55,388s7.12-2,10.85,1.35" style="fill:none;stroke:#263238;stroke-linecap:round;stroke-miterlimit:10"></path><path d="M114.45,342.18c-3.69-2.18-7.78-2.23-9.78-4.53s1.93-3.47,4-2.6,7,3.37,7.9,3.92.28-7.43-1.43-10.44-6.39-4.75-8.73-2.3c-4.93,5.18-12.63-1.61-12.1-5.66s-3.25-8.4-11.36-5.85-5.09,4-5.09,4,5.76,3.53,9.45,5.72,9.81,4,8.49,5.64-4.85.62-7.8-1.75-11.46-8-12.33-5.92-3.92,7.9-3.92,7.9a86.3,86.3,0,0,1,11.12,2.47c4.94,1.55,5.95,4.26,2.09,4.47s-10.86-2.69-13,1-.69,13.17-.69,13.17,7.07-4.79,10.68-4.77,1.3,2-2.73,4.61a56.11,56.11,0,0,0-5.06,3.49l3.67,9.39a67.55,67.55,0,0,1,8.45-.6l2.39.17s0-9.86,2.83-12.78,3.33,3.84,3.93,5.56-1.2,6.89-1.2,6.89,7-3.84,9.27-5.36l2.27-1.52s-2.62-7.15-4.4-9.2-4.2-1.74-2.16-3.52,5.11-.84,6.85,1.68a52.52,52.52,0,0,1,3.8,7.48s2.62.43,6-3.42S118.14,344.37,114.45,342.18ZM82.36,353c-2.71-1.36,3.73-4.07,3.73-4.07C88.46,348.63,85.07,354.39,82.36,353Zm4.57-12.66c-1.16-.58,2.31-1.74,2.31-1.74C94.25,339.61,88.08,341,86.93,340.38Z" style="fill:#E91E63"></path><path d="M82.29,359.94c-.71.75-1.43,1.47-2.18,2.17" style="fill:none;stroke:#263238;stroke-linecap:round;stroke-miterlimit:10"></path><path d="M96.2,338.84a89.84,89.84,0,0,1-11.68,18.6" style="fill:none;stroke:#263238;stroke-linecap:round;stroke-miterlimit:10"></path><path d="M97.46,336.14c1.62-3.64,2.46-6,2.46-6a10,10,0,0,0,6,.66,11.36,11.36,0,0,1,5.29-.11" style="fill:none;stroke:#263238;stroke-linecap:round;stroke-miterlimit:10"></path><path d="M83.43,328.7s11.84,5.88,11.08,6.55" style="fill:none;stroke:#263238;stroke-linecap:round;stroke-miterlimit:10"></path><path d="M100.74,338.81s5.61,2.32,8.72,5.9" style="fill:none;stroke:#263238;stroke-linecap:round;stroke-miterlimit:10"></path><path d="M93.27,342.61a46.83,46.83,0,0,0-9.09-.64,29.23,29.23,0,0,0-9,1.53" style="fill:none;stroke:#263238;stroke-linecap:round;stroke-miterlimit:10"></path><path d="M94.69,346.32s6.2,4,6.08,9.08" style="fill:none;stroke:#263238;stroke-linecap:round;stroke-miterlimit:10"></path><path d="M61.76,389.17c-3-1.76-6.26-1.8-7.87-3.66s1.55-2.79,3.24-2.09,5.62,2.72,6.36,3.16.23-6-1.15-8.4-5.14-3.83-7-1.85c-4,4.17-10.16-1.3-9.73-4.55S43,365,36.43,367.07s-4.09,3.19-4.09,3.19,4.63,2.84,7.6,4.6,7.9,3.26,6.84,4.54-3.9.5-6.28-1.41-9.22-6.45-9.92-4.76-3.16,6.35-3.16,6.35a69.6,69.6,0,0,1,9,2c4,1.25,4.78,3.43,1.68,3.6S29.31,383,27.55,386s-.55,10.6-.55,10.6,5.69-3.86,8.59-3.85,1,1.62-2.2,3.72a46.77,46.77,0,0,0-4.07,2.8l3,7.56a54,54,0,0,1,6.81-.48l1.92.13s0-7.93,2.28-10.28,2.68,3.09,3.16,4.48-1,5.54-1,5.54,5.63-3.09,7.46-4.31l1.83-1.23s-2.11-5.75-3.54-7.4-3.38-1.4-1.74-2.83,4.11-.68,5.52,1.35a43.06,43.06,0,0,1,3,6s2.11.34,4.84-2.75S64.73,390.92,61.76,389.17ZM35.94,397.9c-2.19-1.09,3-3.28,3-3.28C40.85,394.35,38.12,399,35.94,397.9Zm3.67-10.19c-.93-.46,1.86-1.39,1.86-1.39C45.5,387.09,40.54,388.18,39.61,387.71Z" style="fill:#E91E63"></path><path d="M35.88,403.46c-.57.6-1.15,1.18-1.75,1.74" style="fill:none;stroke:#263238;stroke-linecap:round;stroke-miterlimit:10"></path><path d="M47.08,386.48a72.34,72.34,0,0,1-9.41,15" style="fill:none;stroke:#263238;stroke-linecap:round;stroke-miterlimit:10"></path><path d="M48.09,384.3c1.3-2.93,2-4.86,2-4.86a8,8,0,0,0,4.79.53,9.18,9.18,0,0,1,4.27-.08" style="fill:none;stroke:#263238;stroke-linecap:round;stroke-miterlimit:10"></path><path d="M36.8,378.31s9.53,4.74,8.91,5.27" style="fill:none;stroke:#263238;stroke-linecap:round;stroke-miterlimit:10"></path><path d="M50.73,386.45s4.51,1.87,7,4.75" style="fill:none;stroke:#263238;stroke-linecap:round;stroke-miterlimit:10"></path><path d="M44.71,389.51A38.12,38.12,0,0,0,37.4,389a23.61,23.61,0,0,0-7.24,1.23" style="fill:none;stroke:#263238;stroke-linecap:round;stroke-miterlimit:10"></path><path d="M45.86,392.49s5,3.26,4.9,7.31" style="fill:none;stroke:#263238;stroke-linecap:round;stroke-miterlimit:10"></path><path d="M49.65,333.17s-3.73,2.72-6.11,0,1-8.13-2.37-10.17-8.82,1.7-8.82,1.7,4.41,1,4.41,3.39-2,3.39-2.37,2.37-2.72-6.1-6.11-3.73a8.73,8.73,0,0,0-3.73,5.77s8.14-1.36,8.82,1.69-3.39-.34-6.78-.34-6.44.68-6.1,2.71a27.49,27.49,0,0,1,0,5.43,10.07,10.07,0,0,1,6.44-2.71c3.73,0,3.73,2.37.34,2.37S21.16,345,21.16,345s3.39,5.09,7.46,7.46,5.43,1.36,5.77-.68-1-7.12,1.35-7.12-3.39,9.16-.34,9.5,5.43-.68,6.11-2.72l.68-2s-1.36-5.09-1-7.12,1,0,1.69,2.37,1.36,8.14,2.38,7.8,4.07-4.75,4.74-6.44-4.74-6.44-4.74-7.46,4.07.68,4.74,1.69a26.39,26.39,0,0,1,1.36,2.38s2.37-1.7,2-6.44S49.65,333.17,49.65,333.17Z" style="fill:#E91E63"></path><path d="M30.65,345.47c2.34-3.27,5.82-7.72,8.82-9.92" style="fill:none;stroke:#263238;stroke-linecap:round;stroke-miterlimit:10"></path><path d="M27.94,349.45s.6-.94,1.57-2.36" style="fill:none;stroke:#263238;stroke-linecap:round;stroke-miterlimit:10"></path><path d="M41.17,336.23s4.07,5.08,5.08,10.51" style="fill:none;stroke:#263238;stroke-linecap:round;stroke-miterlimit:10"></path><path d="M37.1,339.62s1-.68,1,6.1" style="fill:none;stroke:#263238;stroke-linecap:round;stroke-miterlimit:10"></path><path d="M39.47,333.17s2-2,.68-5.76" style="fill:none;stroke:#263238;stroke-linecap:round;stroke-miterlimit:10"></path><line x1="36.76" y1="336.56" x2="35.06" y2="333.85" style="fill:none;stroke:#263238;stroke-linecap:round;stroke-miterlimit:10"></line><path d="M33.71,339.62s-5.09-3.39-8.14-3.39" style="fill:none;stroke:#263238;stroke-linecap:round;stroke-miterlimit:10"></path><path d="M83.74,446.87h.15V409.64c0-1.21-5.9-2.19-13.17-2.19s-13.16,1-13.16,2.19c0,.14.12.8.12,1v36.22h.15a.74.74,0,0,0-.15.41c0,1.54,5.87,2.78,13.1,2.78s13.11-1.24,13.11-2.78A.74.74,0,0,0,83.74,446.87Z" style="fill:#263238;stroke:#263238;stroke-linecap:round;stroke-miterlimit:10;stroke-width:2px"></path></g><g id="freepik--Weights--inject-56"><rect x="671" y="254.74" width="6" height="190" style="fill:#fff;stroke:#263238;stroke-miterlimit:10"></rect><rect x="635" y="287.74" width="7" height="151" style="fill:#fff;stroke:#263238;stroke-miterlimit:10"></rect><circle cx="639" cy="336.74" r="29" style="fill:#7a7a7a;stroke:#263238;stroke-miterlimit:10"></circle><circle cx="639" cy="336.74" r="15" style="fill:#7a7a7a;stroke:#263238;stroke-miterlimit:10"></circle><circle cx="639" cy="336.74" r="4" style="fill:#263238;stroke:#263238;stroke-miterlimit:10"></circle><circle cx="639" cy="404.74" r="29" style="fill:#7a7a7a;stroke:#263238;stroke-miterlimit:10"></circle><circle cx="639" cy="404.74" r="15" style="fill:#7a7a7a;stroke:#263238;stroke-miterlimit:10"></circle><circle cx="639" cy="404.74" r="4" style="fill:#263238;stroke:#263238;stroke-miterlimit:10"></circle><rect x="610" y="436.74" width="67" height="8" style="fill:#263238;stroke:#263238;stroke-miterlimit:10"></rect></g><g id="freepik--character-2--inject-56"><path d="M451.11,320.66,448.63,327s-33.55,13.28-48.19,22.29-16,17.11-13.06,23.87S418,435.28,418,435.28l.9,2.7-2,5.4s-13.06,6.53-16.66,8.11-6.53,2.7-4.28,5.63,12.83,2.7,16.21,2,10.13-1.81,13.74-1.58,10.58,1.35,9.68-4.05-2.48-11.26-2.93-13.74-7.88-27.47-9-36.25-1.93-21-5.08-25.71-5.28-7.62-5.28-7.62,12.52-1.83,23.42-3.6a204.76,204.76,0,0,0,32.87-7.88s17.79-6.08,27.92-6.76,18.69-4.28,21.62-10.81,1.35-19.14-5.4-25.89-7.66-6.76-7.66-6.76a63.56,63.56,0,0,1-26.57,8.11c-14.86.9-24.54-2-24.54-2Z" style="fill:#E91E63;stroke:#263238;stroke-miterlimit:10"></path><path d="M425.89,457.57c3.6.23,10.58,1.35,9.68-4.05s-2.48-11.26-2.93-13.74c-.14-.8-1-3.94-2.17-8.13-6.82,1.64-11.14,1.62-13.64,1.27l1.18,2.36.9,2.7-2,5.4s-13.06,6.53-16.66,8.11-6.53,2.7-4.28,5.63,12.83,2.7,16.21,2S422.28,457.34,425.89,457.57Z" style="fill:#fff;stroke:#263238;stroke-miterlimit:10"></path><path d="M432.85,440.81l-6.74.32-2.7-3.38c-1.8-2.25-4.5.23-4.5.23l-2,5.4s-13.06,6.53-16.66,8.11-6.53,2.7-4.28,5.63,12.83,2.7,16.21,2,10.13-1.81,13.74-1.58,10.58,1.35,9.68-4.05C434.78,448.76,433.46,443.65,432.85,440.81Z" style="fill:#fff;stroke:#263238;stroke-miterlimit:10"></path><line x1="462.27" y1="332.57" x2="474.75" y2="342.06" style="fill:#fff;stroke:#263238;stroke-miterlimit:10"></line><path d="M433,269.09s-11.09-8.12-17.33-12.73a77.27,77.27,0,0,1-10.57-9.5L409.93,233l-15.19.81s-4.34,10.58-1.9,13l6.78,6.78s18.72,21.16,23.6,25.5,14.64,4.61,14.64,4.61l-3.79-14.38Z" style="fill:#fff;stroke:#263238;stroke-miterlimit:10"></path><path d="M434.89,231.94s-8.33,1.8-9.68,6.31,3.6,20.49,5.63,25.22a40.28,40.28,0,0,1,2.48,7s-.68,10.58,2.25,16.43,14.19,7.66,14.19,7.66L454,302l-2.92,18.69s17.56,6.08,33.1,2.7A37.51,37.51,0,0,0,507,308.5l-12.38-10.81s-.45-25.22-1.13-37.15-1.35-23-6.3-27.7-19.82-2.93-21.17-3.15-4.73-3.83-6.31-7.43-4.72-12.16-4.72-12.16-5,1.35-5.86,4.73-4.5,8.33-7.43,10.81S434.89,231.94,434.89,231.94Z" style="fill:#fff;stroke:#263238;stroke-miterlimit:10"></path><path d="M452.75,218.2s.81,3.24-2.44,9.19a52,52,0,0,1-4.86,7.84l-4.6-7S451.4,219.55,452.75,218.2Z" style="fill:#263238;stroke:#263238;stroke-linecap:round;stroke-miterlimit:10"></path><path d="M493.77,267.79c-2.55,1.11-9.44,3.32-15.19-2.07-7.21-6.76-8.11-25.45-8.11-29.73,0-3.14.12-5.43.19-6.43-1.14,0-2.14.08-2.93.11-.24,4.69-1.41,27.08-2.21,33.12-.9,6.76-9.23,10.13-15.76,8.33s-10.36-6.3-10.36-13.73,2.7-28.15,2.7-28.15l-2.48.45s-3.6,25.67-5.18,31.07a50.69,50.69,0,0,0-1.49,8.33c.28.91.37,1.36.37,1.36s-.68,10.58,2.25,16.43,14.19,7.66,14.19,7.66l.84,1.47c1,1.1,4.74,3.29,17.17,1.91,13.66-1.52,23.14-6.7,26.6-9.65C494.23,282.27,494,274.43,493.77,267.79Z" style="fill:#263238;stroke:#263238;stroke-miterlimit:10"></path><path d="M465.12,297.44s2.62,1.74,11.36,3.05" style="fill:#fff;stroke:#263238;stroke-miterlimit:10"></path><path d="M462.5,291.76s9.17,3.93,19.22-2.63" style="fill:none;stroke:#fff;stroke-miterlimit:10"></path><path d="M451.56,180.37s4.95-7,12.38-3.82,16.67,25,15.54,34.45-12.16,11-19.14,8.56-5.4-13.52-6.53-20.27S451.56,180.37,451.56,180.37Z" style="fill:#263238;stroke:#263238;stroke-miterlimit:10"></path><path d="M475.61,232.33s9.95-4.44,16.93,2.54a48.08,48.08,0,0,1,9.91,14.18l18.24,23.62s3.83-15.6,2.92-20.55-5.85-9.69-6.75-11.94,1.58-11.26,1.58-11.26,14.41.23,15.08.23,2.71,5.85,2.25,9.9-4.27,7-4.27,7,2.47,20.49,2,34.22-7.26,14.06-13.93,10.08C507.2,283,501.32,274.27,496.37,270a55.57,55.57,0,0,1-7.21-7.21" style="fill:#fff;stroke:#263238;stroke-miterlimit:10"></path><line x1="491.19" y1="261.44" x2="486.91" y2="265.72" style="fill:none;stroke:#263238;stroke-miterlimit:10"></line><line x1="456.06" y1="242.07" x2="466.64" y2="236.22" style="fill:none;stroke:#263238;stroke-miterlimit:10"></line><path d="M441.65,230.14s4.25,3.94,4.05,11.48" style="fill:none;stroke:#263238;stroke-miterlimit:10"></path><path d="M508.36,324.2c-4.09-.8-9.68-1.14-14.47,1.19-8.78,4.28-22.52,21.39-25,26.8s.67,13.73,2,16.43,21.85,45,26.12,52.47c3,5.29,4.95,12.51,5.8,16.24a4.26,4.26,0,0,0-1.29,1.1l-.45,9.23s-2.71,4.73-6.76,6.76-6.53,6.3-2.7,7.65,16.89,1.13,20,.23,7-.9,7-3.6,0-12.39-.9-15.77-2-3.37-2-3.37h-1c-.41-4-2.11-20.33-3.28-31.53-1.36-12.83-6.08-25.9-10.36-33.33a89.14,89.14,0,0,0-9-12.83s-2-1.58,2.25-3.15,21.39-7.43,24.77-16c3-7.49,1.09-12.22.57-13.28" style="fill:#E91E63;stroke:#263238;stroke-miterlimit:10"></path><path d="M511.68,462.3c3.15-.9,7-.9,7-3.6s0-12.39-.9-15.77-2-3.37-2-3.37h-1c-.13-1.29-.4-3.87-.74-7.14a37.86,37.86,0,0,1-12.35.29c.51,1.78.91,3.39,1.19,4.62a4.26,4.26,0,0,0-1.29,1.1l-.45,9.23s-2.71,4.73-6.76,6.76-6.53,6.3-2.7,7.65S508.53,463.2,511.68,462.3Z" style="fill:#fff;stroke:#263238;stroke-miterlimit:10"></path><path d="M511.68,462.3c3.15-.9,7-.9,7-3.6s0-12.39-.9-15.77-2-3.37-2-3.37h-2.92s-3.38-3.61-4.73-3.61a27.61,27.61,0,0,0-5.24,1.38,4.26,4.26,0,0,0-1.29,1.1l-.45,9.23s-2.71,4.73-6.76,6.76-6.53,6.3-2.7,7.65S508.53,463.2,511.68,462.3Z" style="fill:#fff;stroke:#263238;stroke-miterlimit:10"></path><ellipse cx="352.89" cy="234.29" rx="12.28" ry="17.5" style="fill:#263238;stroke:#263238;stroke-linecap:round;stroke-miterlimit:10"></ellipse><ellipse cx="354.97" cy="234.29" rx="12.28" ry="17.5" style="fill:#7a7a7a;stroke:#263238;stroke-miterlimit:10"></ellipse><path d="M357.43,234.29c0,1.93-1.1,3.5-2.46,3.5s-2.45-1.57-2.45-3.5,1.1-3.5,2.45-3.5S357.43,232.35,357.43,234.29Z" style="fill:#7a7a7a;stroke:#263238;stroke-miterlimit:10"></path><ellipse cx="362.1" cy="234.29" rx="17.67" ry="25.17" style="fill:#263238;stroke:#263238;stroke-linecap:round;stroke-miterlimit:10"></ellipse><ellipse cx="365.1" cy="234.29" rx="17.67" ry="25.17" style="fill:#7a7a7a;stroke:#263238;stroke-miterlimit:10"></ellipse><path d="M574.76,236H493.63c-2.25-3-6.08-4-5-4h86.1a2,2,0,0,1,0,4Z" style="fill:#263238"></path><path d="M433.2,232.19a7.89,7.89,0,0,1,2-.05,1.91,1.91,0,0,0-.83-.19H363.76a2,2,0,0,0,0,4h62.81A11.7,11.7,0,0,1,433.2,232.19Z" style="fill:#263238"></path><ellipse cx="582.1" cy="234.29" rx="17.67" ry="25.17" style="fill:#263238;stroke:#263238;stroke-miterlimit:10"></ellipse><ellipse cx="585.1" cy="234.29" rx="17.67" ry="25.17" style="fill:#7a7a7a;stroke:#263238;stroke-miterlimit:10"></ellipse><ellipse cx="589.89" cy="234.29" rx="12.28" ry="17.5" style="fill:#263238;stroke:#263238;stroke-miterlimit:10"></ellipse><ellipse cx="591.97" cy="234.29" rx="12.28" ry="17.5" style="fill:#7a7a7a;stroke:#263238;stroke-miterlimit:10"></ellipse><path d="M594.43,234.29c0,1.93-1.1,3.5-2.46,3.5s-2.45-1.57-2.45-3.5,1.1-3.5,2.45-3.5S594.43,232.35,594.43,234.29Z" style="fill:#263238;stroke:#263238;stroke-linecap:round;stroke-miterlimit:10"></path><path d="M402.83,227.69s-10,2.22-10.23,3a4.69,4.69,0,0,0,1.11,3.94c1.11,1,12.44-.37,13.43-.74s.49-3.2.37-4.81S402.83,227.69,402.83,227.69Z" style="fill:#fff;stroke:#263238;stroke-miterlimit:10"></path><path d="M405.05,246.86s6.52-11.78,6.52-13.13-7-5.18-7.51-6.53-2.34,0-1.6,2.46a12.05,12.05,0,0,0,1.84,3.82l1.11,1.23s-6.53,4.44-8.25,7.52,4.56,4.68,4.56,4.68" style="fill:#fff;stroke:#263238;stroke-miterlimit:10"></path><path d="M521.59,226.44s11.67,0,12.48,1.36l.8,1.35s0,4-1,4.28-10.07.67-12.68.22-1-5.4-1-6.75S521.59,226.44,521.59,226.44Z" style="fill:#fff;stroke:#263238;stroke-miterlimit:10"></path><path d="M524.87,238.91a52.39,52.39,0,0,0-3.51-5.26c-.9-.9-3.6-2.93-3.6-2.93s5.4-1.35,5.4-2.92-2.7-1.36-3.82-.45-5.18.67-5.18,2.47-.9,6.31.45,8.11,6.75,6.3,6.75,6.3" style="fill:#fff;stroke:#263238;stroke-miterlimit:10"></path><path d="M421.21,182.18A21.12,21.12,0,0,0,418.68,195c1.35,8.78,2.25,16,2.25,16a20.41,20.41,0,0,0,1.58,9.23c2,4.5,8.78,11.94,11.48,11.94s7-1.81,11.26-4.28,8.11-9.24,8.11-10.81V212.8s4.05-2.93,4.5-5.85a41.62,41.62,0,0,0,.23-7s1.12-9.68-4.06-18-16.61-8.57-24.77-6.53C425.75,176.3,423,178.92,421.21,182.18Z" style="fill:#fff;stroke:#263238;stroke-linecap:round;stroke-miterlimit:10"></path><path d="M429.29,173.35a10.77,10.77,0,0,0-8.08,8.83c-.26,1.26-1.15,2.34-1.56,3.57l.16,0s.22-1.13,2-.45,2.48,2.47,8.34,1.57,11.48-4.72,13.51-3.15,1.35,7.66,1.12,11.49,5.18,3.15,5.18,3.15.9,5.18,2.7,4.05,2.26-5.85,5.41-2.48c0,0,2.6-12.6-2.58-20.93S437.45,171.31,429.29,173.35Z" style="fill:#263238;stroke:#263238;stroke-linecap:round;stroke-miterlimit:10"></path><path d="M439.85,207.5c0,1.05-.56,1.9-1.24,1.9s-1.24-.85-1.24-1.9.56-1.91,1.24-1.91S439.85,206.45,439.85,207.5Z" style="fill:#263238"></path><path d="M426.79,207.5c0,1.05-.56,1.9-1.24,1.9s-1.24-.85-1.24-1.9.56-1.91,1.24-1.91S426.79,206.45,426.79,207.5Z" style="fill:#263238"></path><path d="M429.49,207.17a31.75,31.75,0,0,1-.45,5.18c-.45,2.25-2.7,3.38-.9,3.83a18.3,18.3,0,0,0,3.83.45" style="fill:none;stroke:#263238;stroke-linecap:round;stroke-miterlimit:10"></path><path d="M434.19,222.33a1.74,1.74,0,0,1-1.09,2.15c-.8.14-1.59-.58-1.78-1.62a1.74,1.74,0,0,1,1.09-2.15C433.21,220.57,434,221.29,434.19,222.33Z" style="fill:#263238"></path><path d="M433.54,204s4.73-2.48,8.33-1.13" style="fill:none;stroke:#263238;stroke-linecap:round;stroke-miterlimit:10"></path><path d="M428.14,205.37a9.5,9.5,0,0,0-5.18-2" style="fill:none;stroke:#263238;stroke-linecap:round;stroke-miterlimit:10"></path><path d="M410.5,186.89c5.68-3.93,9.15-1.14,9.15-1.14s-10,3.33-10,9.88" style="fill:none;stroke:#263238;stroke-miterlimit:10"></path><path d="M416.28,203.25s-5.69-4.35-5.93-1.43C410.17,204,416.28,203.25,416.28,203.25Z" style="fill:#fff;stroke:#263238;stroke-linecap:round;stroke-miterlimit:10"></path><path d="M416.28,206.67s-5.39.18-6.11,2.87S416.28,206.67,416.28,206.67Z" style="fill:#fff;stroke:#263238;stroke-linecap:round;stroke-miterlimit:10"></path></g><g id="freepik--character-1--inject-56"><path d="M208.67,268.07s-2.34,17.67-3,28.33,0,52.34-.34,54.34.67,12.33.67,12.33-9.33,18.33-10.67,30.67-5.33,50-5.33,50l11-.34s12-35.33,18-45.33,15-33.33,17-40,14.33-41,14.33-41,22,31,26.67,36,11,15.33,11,15.33-.33,13.67,3.33,24.67,12,22.67,15.67,36.67c1.15,4.38,2.67,14.33,2.67,14.33l12-2s-.9-6.82-1.67-20.33c-2-35.34-9.33-67-10.33-69.67S299,313.4,292,302.74s-11-17-11-17l-7.33-14a305.62,305.62,0,0,1-36.34,2.66C220,274.4,208.67,268.07,208.67,268.07Z" style="fill:#b8b8b8;stroke:#263238;stroke-miterlimit:10"></path><path d="M292,302.74c-7-10.67-11-17-11-17l-7.33-14a305.62,305.62,0,0,1-36.34,2.66c-17.33,0-28.66-6.33-28.66-6.33s-2.34,17.67-3,28.33c-.51,8.19-.24,34.61-.24,47.38A208.41,208.41,0,0,0,239.38,348c4.32-12.48,11-30.94,11-30.94s13.49,19,21.58,29.65a158.47,158.47,0,0,0,33.77-8C302,326.56,296.45,309.52,292,302.74Z" style="fill:#263238;stroke:#263238;stroke-miterlimit:10"></path><path d="M324,433.07s-6.33-1.67-6.33.67v.07a5.13,5.13,0,0,1-6,5c-2-.32-3.73-.45-3.73.13,0,1.34-2.31,13.79,1,15.79s8.67,0,11.67,2,9.66,3.66,15.33,3.33,12.33-.33,9.33-5.67-11.33-7-14.66-10.66S324,433.07,324,433.07Z" style="fill:#263238;stroke:#263238;stroke-miterlimit:10"></path><path d="M203,435.4s-3.33-4.33-7.67-2.66A6.39,6.39,0,0,0,191,438.4s-2.67,10.34-4.67,11.67-5,10-2,11.67,13,1.66,17,0,4-8.67,4-12.34,1-6.33.67-9a2.79,2.79,0,0,0-2.67-2.66Z" style="fill:#263238;stroke:#263238;stroke-miterlimit:10"></path><path d="M245.39,164.07s-22.41,8.81-31.48,13.09S199.56,191,199.56,197.31s9.32,49.85,9.82,51.62-1.51,22.41-1.51,22.41,10.83,9.31,34,8.31,31.73-3.78,33.74-5,.76-14.6,1-19.14S289.71,222,289.71,222s6.54,10.08,9.31,12.34a20,20,0,0,1,4,4.28s4,14.35,9.07,19.64S325,279.9,325.21,281.16s-1.26,4-1.26,4.78-3.78,6-2.77,7.55,0,4.54,1.51,5.54A23.43,23.43,0,0,0,326,300.8a8.19,8.19,0,0,0,4.53,2.52,3.09,3.09,0,0,0,3.27-2s6.55-4,6.8-7.81a35.23,35.23,0,0,0-3.78-17.37c-3.52-7.3-8.56-32.73-11.33-39s-8.56-14.6-8.56-14.6L302,194.79s-6-13.85-13.34-18.63-19.64-8.31-24.93-9.82S245.39,164.07,245.39,164.07Z" style="fill:#E91E63;stroke:#263238;stroke-miterlimit:10"></path><path d="M241.11,161.8a79,79,0,0,0,.5,11.84c.76,5.29,5.79,9.82,13.35,11.58s12.08-3.78,13.85-7.05,1.51-9.32,1.51-9.32a14.58,14.58,0,0,1-15.61,1.26A111.51,111.51,0,0,1,241.11,161.8Z" style="fill:#b8b8b8;stroke:#263238;stroke-miterlimit:10"></path><path d="M265.31,171.3a14,14,0,0,1-10.6-1.19,119.75,119.75,0,0,1-12.94-7.83l-.68.18a76.13,76.13,0,0,0,.52,11.18,10.12,10.12,0,0,0,.74,2.56,20.15,20.15,0,0,0,8.24,2.75c12.34,1.24,18.85-5.54,18.85-5.54Z" style="fill:#263238;stroke:#263238;stroke-linecap:round;stroke-miterlimit:10"></path><path d="M236.07,175.65s3.53,9.82,8.56,13.6" style="fill:none;stroke:#263238;stroke-miterlimit:10"></path><path d="M272.58,180.94A57.61,57.61,0,0,1,268.81,193" style="fill:none;stroke:#263238;stroke-miterlimit:10"></path><path d="M299.1,211.73a27.92,27.92,0,0,0,2.69-4.6" style="fill:none;stroke:#263238;stroke-miterlimit:10"></path><path d="M296.74,206.09c-3,7.34-7,15.89-7,15.89a67.75,67.75,0,0,0,7.29-7.51" style="fill:none;stroke:#263238;stroke-miterlimit:10"></path><path d="M299.27,199.07c-.33,1.16-.81,2.57-1.39,4.11" style="fill:none;stroke:#263238;stroke-miterlimit:10"></path><path d="M295.25,222.24s7.05-4.79,10.57-8.82" style="fill:none;stroke:#263238;stroke-miterlimit:10"></path><path d="M332.93,264.25a127.79,127.79,0,0,1-13,5.95,95.88,95.88,0,0,1,5.29,11c.25,1.26-1.26,4-1.26,4.78s-3.78,6-2.77,7.55,0,4.54,1.51,5.54A23.43,23.43,0,0,0,326,300.8a8.19,8.19,0,0,0,4.53,2.52,3.09,3.09,0,0,0,3.27-2s6.55-4,6.8-7.81a35.23,35.23,0,0,0-3.78-17.37A80.68,80.68,0,0,1,332.93,264.25Z" style="fill:#b8b8b8;stroke:#263238;stroke-miterlimit:10"></path><path d="M217.94,221.23s5.79-6.55,9.07-11.33" style="fill:none;stroke:#263238;stroke-miterlimit:10"></path><path d="M218.7,223a23.08,23.08,0,0,0,10.07-5.79" style="fill:none;stroke:#263238;stroke-miterlimit:10"></path><path d="M211.4,260s6.79,4.78,14.6,5" style="fill:none;stroke:#263238;stroke-miterlimit:10"></path><path d="M265.42,263.14a61.46,61.46,0,0,1-17.76,7.44" style="fill:none;stroke:#263238;stroke-miterlimit:10"></path><path d="M272.84,257.49a35,35,0,0,1-4.21,3.48" style="fill:none;stroke:#263238;stroke-miterlimit:10"></path><path d="M229.27,268.57a89.5,89.5,0,0,0,23.92-3.28" style="fill:none;stroke:#263238;stroke-miterlimit:10"></path><path d="M274.83,144.52s1.75-.5,1.75,2.89a17.18,17.18,0,0,1-2,7Z" style="fill:#b8b8b8;stroke:#263238;stroke-miterlimit:10"></path><path d="M236.74,147.06s-4.47-3.76-5.18,2.12,4.24,8.47,5.18,8.47h.94s.47,5.88,4.23,9.41,12.24,8.7,16.47,9.4,8.7-.47,11.06-3.05,5.17-9.65,5.17-13.18.47-21.4.47-24,1.41-10.12-8.23-15.29-26.35.94-29.88,5.88S236.74,147.06,236.74,147.06Z" style="fill:#b8b8b8;stroke:#263238;stroke-miterlimit:10"></path><path d="M255,156.58a2.39,2.39,0,0,0,1.88,2.59c2.12.47,7.06,1.17,8.47-.47a4.19,4.19,0,0,0,.71-3.77" style="fill:none;stroke:#263238;stroke-miterlimit:10"></path><path d="M264.44,163.29s-7.77-.23-8.71,1.65,7.76,3.45,10.82.23C268.44,163.19,264.44,163.29,264.44,163.29Z" style="fill:#263238"></path><path d="M254.21,150.13c0,1.32-.54,2.38-1.19,2.38s-1.19-1.06-1.19-2.38.53-2.37,1.19-2.37S254.21,148.82,254.21,150.13Z" style="fill:#263238"></path><path d="M268.32,149.53c0,1.32-.54,2.38-1.19,2.38s-1.19-1.06-1.19-2.38.53-2.38,1.19-2.38S268.32,148.22,268.32,149.53Z" style="fill:#263238"></path><path d="M247.4,144.15a6.47,6.47,0,0,1,6.89.75" style="fill:none;stroke:#263238;stroke-linecap:round;stroke-miterlimit:10;stroke-width:2px"></path><path d="M265.19,144.27A6.43,6.43,0,0,1,270.7,143" style="fill:none;stroke:#263238;stroke-linecap:round;stroke-miterlimit:10;stroke-width:2px"></path><path d="M262.51,235.83s5.29.76,5.79,4-3,6.3-6.29,8.31-13.35-4.78-14.86-9.06S262.51,235.83,262.51,235.83Z" style="fill:#263238;stroke:#263238;stroke-miterlimit:10"></path><path d="M209.38,180.94s-9.06,4.28-13.6,12.09-10.07,33.74-11.83,42.8-2.27,21.91-.5,22.41,31-3.27,39.53-3.77,18.88-2,18.88-2,13.6,3.78,15.62,3,5.28-5.79,5.28-5.79,5.29-3.27,6.55-5.29,1-3.27-1.51-2.26a17.48,17.48,0,0,1-8.06,1.76c-4,0-8.06-4.53-8.06-4.53l2.77-1.51s4.79.5,6.55,0,2-3.78.5-4a76.23,76.23,0,0,0-7.8-.25c-2,0-5.79-2-8.31-.26s-7.56,6.55-7.56,6.55-13.34,1.76-16.61,1.26-7.81-1.51-7.81-1.51,4.78-9.07,5-12.34-.26-6,.25-13.34" style="fill:#E91E63;stroke:#263238;stroke-miterlimit:10"></path><path d="M212.93,239.82s-8.09-1.59-13.48-2.38" style="fill:none;stroke:#263238;stroke-miterlimit:10"></path><path d="M267.8,242.13a17.48,17.48,0,0,1-8.06,1.76c-4,0-8.06-4.53-8.06-4.53l2.77-1.51s4.79.5,6.55,0,2-3.78.5-4a76.23,76.23,0,0,0-7.8-.25c-2,0-5.79-2-8.31-.26s-7.56,6.55-7.56,6.55-13.34,1.76-16.61,1.26l-.56-.09a50.48,50.48,0,0,0-1.06,13.7c1.32-.12,2.47-.21,3.38-.26,8.56-.51,18.88-2,18.88-2s13.6,3.78,15.62,3,5.28-5.79,5.28-5.79,5.29-3.27,6.55-5.29S270.32,241.12,267.8,242.13Z" style="fill:#b8b8b8;stroke:#263238;stroke-miterlimit:10"></path></g><g id="freepik--lamp-3--inject-56"><path d="M672.9,47.56V41.74h-5.43v-35h-1.09v35h-4.31v5.82A26.5,26.5,0,0,0,641,72h52.91A26.51,26.51,0,0,0,672.9,47.56Z" style="fill:#263238;stroke:#263238;stroke-miterlimit:10"></path></g><g id="freepik--lamp-2--inject-56"><path d="M377.9,47.56V41.74h-5.43v-35h-1.09v35h-4.31v5.82A26.5,26.5,0,0,0,346,72h52.91A26.51,26.51,0,0,0,377.9,47.56Z" style="fill:#263238;stroke:#263238;stroke-miterlimit:10"></path></g><g id="freepik--lamp-1--inject-56"><path d="M98.9,47.56V41.74H93.47v-35H92.38v35H88.07v5.82A26.5,26.5,0,0,0,67,72h52.91A26.51,26.51,0,0,0,98.9,47.56Z" style="fill:#263238;stroke:#263238;stroke-miterlimit:10"></path></g></svg>